<?xml version="1.0" standalone="no"?>
<!DOCTYPE svg PUBLIC "-//W3C//DTD SVG 20010904//EN"
 "http://www.w3.org/TR/2001/REC-SVG-20010904/DTD/svg10.dtd">
<svg version="1.0" xmlns="http://www.w3.org/2000/svg"
 width="2073.000000pt" height="1413.000000pt" viewBox="0 0 2073.000000 1413.000000"
 preserveAspectRatio="xMidYMid meet">
<metadata>
Created by potrace 1.16, written by Peter Selinger 2001-2019
</metadata>
<g transform="translate(0.000000,1413.000000) scale(0.100000,-0.100000)"
fill="#ffffff" stroke="none">
<path d="M2894 13316 c-26 -12 -47 -43 -127 -197 -52 -101 -123 -231 -156
-289 -34 -58 -61 -110 -61 -116 0 -6 -7 -18 -16 -25 -23 -19 -134 -246 -134
-273 0 -12 6 -31 14 -42 14 -18 34 -19 460 -24 245 -3 459 -2 475 3 18 4 58
39 107 93 44 48 124 134 180 193 55 58 131 144 169 191 37 47 86 105 109 130
73 79 207 244 223 273 13 25 13 31 -2 53 -9 14 -26 28 -38 33 -12 4 -281 9
-597 9 -471 2 -581 -1 -606 -12z"/>
<path d="M4086 13081 c-4 -7 -5 -15 -2 -18 9 -9 19 4 14 18 -4 11 -6 11 -12 0z"/>
<path d="M1531 11968 c-59 -57 -168 -156 -242 -220 -74 -64 -165 -149 -204
-188 l-70 -71 -3 -1857 c-3 -1869 -2 -1962 31 -2025 13 -24 146 -159 212 -216
54 -46 279 -247 315 -282 9 -9 38 -30 63 -47 l46 -32 1301 0 1301 0 53 39 c29
22 62 51 72 64 18 23 369 336 474 422 26 22 52 49 57 60 8 21 12 3514 3 3741
l-5 131 -43 47 c-39 42 -276 262 -354 329 -18 15 -79 68 -135 117 l-102 90
-1331 0 -1331 0 -108 -102z m1532 -936 l657 -2 -2 -1448 c-3 -1213 -5 -1452
-17 -1466 -12 -15 -73 -16 -735 -14 l-721 3 -7 80 c-3 44 -7 702 -7 1462 0
1043 2 1382 11 1385 7 3 46 4 87 3 42 -1 372 -3 734 -3z"/>
<path d="M5930 12030 c-86 -62 -534 -491 -556 -532 -11 -22 -14 -173 -14 -907
0 -608 3 -895 11 -925 9 -35 27 -59 93 -122 45 -44 105 -99 135 -124 77 -66
136 -117 210 -185 83 -77 145 -119 196 -135 30 -10 255 -14 910 -17 479 -3
873 -8 877 -12 6 -5 12 -622 9 -943 l-1 -78 -609 0 -610 0 -15 22 c-14 19 -16
63 -16 273 0 137 -4 255 -8 262 -5 8 -158 12 -569 15 l-562 3 -23 -23 -23 -23
-3 -484 c-2 -414 0 -489 12 -514 15 -28 228 -235 419 -405 53 -48 97 -93 97
-99 0 -7 19 -20 43 -29 39 -17 123 -18 1254 -18 l1211 0 39 33 c21 18 65 59
99 92 33 33 111 105 174 160 193 172 241 219 261 257 18 36 19 74 19 983 l0
945 -87 88 c-145 145 -473 445 -531 485 -26 18 -45 18 -397 13 -701 -11 -1397
-8 -1412 6 -19 19 -20 947 -1 959 20 13 1208 16 1229 4 5 -4 9 -113 9 -260 0
-219 2 -256 16 -270 14 -14 75 -15 585 -13 494 3 571 5 579 18 6 9 10 207 10
486 l0 470 -27 55 c-22 41 -55 77 -143 154 -63 55 -178 162 -256 238 l-141
137 -1219 0 -1219 -1 -55 -39z"/>
<path d="M9525 12050 c-11 -4 -30 -19 -43 -32 l-22 -25 0 -2439 c0 -1552 4
-2452 10 -2474 5 -18 15 -37 22 -42 16 -10 1099 -10 1115 0 9 6 12 340 14
1452 0 794 4 1450 7 1458 3 8 12 -9 22 -39 9 -30 31 -84 48 -121 18 -37 32
-72 32 -77 0 -6 27 -82 60 -169 33 -88 60 -164 60 -170 0 -6 9 -26 19 -44 11
-18 27 -66 36 -105 10 -40 28 -87 41 -105 13 -17 24 -45 24 -60 0 -16 8 -45
19 -66 10 -20 28 -66 41 -102 12 -36 34 -101 50 -145 15 -44 42 -125 60 -180
17 -55 36 -109 41 -120 4 -11 24 -65 43 -120 19 -55 51 -145 71 -200 20 -55
38 -107 39 -115 1 -8 5 -22 9 -30 9 -19 71 -194 102 -286 14 -40 34 -93 45
-119 11 -26 20 -54 20 -62 0 -9 9 -34 19 -57 11 -23 45 -117 77 -211 36 -103
67 -179 81 -192 22 -23 23 -23 356 -23 251 0 337 3 349 13 9 6 23 35 32 62 8
28 31 95 50 150 19 55 53 154 76 220 22 66 45 130 50 143 23 52 30 69 44 112
8 25 32 95 54 155 21 61 56 164 77 230 21 66 42 125 46 130 4 6 26 64 48 129
23 66 45 124 50 130 4 6 20 49 36 96 15 47 33 99 40 115 8 17 23 59 34 95 11
36 25 79 30 95 13 37 94 274 128 375 14 41 48 134 76 205 27 72 60 159 73 195
28 80 89 229 98 237 4 4 6 -6 4 -23 -1 -16 -1 -658 0 -1426 2 -1383 2 -1398
22 -1418 20 -20 33 -20 559 -20 327 0 550 4 565 10 l26 10 -2 2467 c-3 2450
-3 2468 -23 2495 -11 15 -30 31 -43 37 -16 8 -236 11 -704 11 -570 0 -685 -3
-708 -15 -26 -14 -70 -88 -70 -120 0 -8 -18 -61 -41 -117 -23 -57 -53 -141
-68 -188 -27 -82 -39 -114 -83 -210 -11 -25 -31 -76 -43 -115 -13 -38 -37
-108 -54 -155 -18 -47 -51 -143 -76 -215 -24 -71 -53 -152 -65 -180 -12 -27
-33 -84 -46 -125 -13 -41 -28 -84 -34 -95 -5 -11 -19 -47 -30 -80 -12 -33 -44
-123 -71 -200 -28 -77 -59 -167 -70 -200 -11 -33 -30 -87 -43 -120 -13 -33
-29 -78 -35 -100 -7 -22 -25 -71 -41 -110 -15 -38 -38 -97 -51 -130 -12 -33
-30 -78 -40 -100 -21 -50 -119 -347 -119 -363 0 -7 -4 -12 -9 -12 -9 0 -62
128 -131 320 -22 63 -48 131 -57 150 -8 19 -37 102 -64 183 -27 82 -56 158
-64 170 -8 12 -15 27 -15 35 0 16 -60 174 -72 187 -4 5 -8 16 -8 25 0 9 -9 35
-20 58 -11 22 -20 48 -20 56 0 14 -7 34 -36 101 -7 17 -20 53 -29 80 -9 28
-20 59 -26 70 -5 11 -31 83 -58 160 -27 77 -65 183 -84 235 -19 52 -38 104
-42 115 -4 11 -24 65 -44 120 -21 55 -44 116 -51 135 -7 19 -26 71 -42 115
-17 44 -35 98 -41 120 -9 35 -45 138 -106 300 -11 28 -27 73 -37 100 -9 28
-31 65 -48 83 l-30 32 -685 -1 c-378 0 -695 -4 -706 -9z"/>
<path d="M16399 12045 c-31 -17 -58 -72 -93 -185 -14 -47 -35 -116 -46 -155
-12 -38 -31 -104 -41 -145 -11 -41 -35 -120 -53 -175 -18 -55 -48 -147 -66
-205 -18 -58 -37 -109 -42 -115 -4 -5 -8 -16 -8 -25 0 -8 -29 -107 -64 -220
-72 -226 -142 -455 -176 -570 -28 -97 -92 -303 -141 -455 -22 -67 -39 -126
-39 -131 0 -11 -5 -26 -85 -274 -26 -80 -51 -158 -55 -175 -5 -16 -24 -75 -43
-130 -47 -135 -110 -332 -197 -615 -39 -129 -105 -338 -145 -465 -41 -126 -83
-264 -95 -305 -12 -41 -30 -100 -40 -130 -11 -30 -33 -102 -50 -160 -17 -58
-43 -136 -57 -175 -42 -117 -55 -176 -42 -191 9 -12 110 -14 585 -14 661 0
599 -11 629 109 9 39 21 73 25 76 5 3 11 24 15 48 7 38 23 88 45 142 10 24 19
55 25 87 3 13 9 32 14 43 6 11 19 54 31 95 34 123 42 153 56 198 8 23 14 49
14 57 0 9 4 23 9 33 5 9 12 25 15 35 5 16 52 17 799 17 624 0 797 -3 804 -12
5 -7 31 -80 57 -163 26 -82 56 -175 67 -205 11 -30 31 -93 44 -140 13 -47 30
-105 39 -130 52 -150 76 -224 76 -237 0 -8 10 -23 23 -34 21 -17 49 -18 585
-19 657 0 628 -4 617 83 -4 29 -17 79 -30 112 -38 101 -87 248 -94 285 -4 19
-14 49 -22 65 -16 31 -22 51 -110 340 -50 167 -108 351 -134 430 -20 60 -69
217 -104 335 -18 58 -40 132 -51 165 -11 33 -40 128 -65 210 -79 259 -89 289
-102 310 -7 11 -13 27 -13 37 0 9 -22 84 -49 165 -58 180 -137 429 -146 463
-8 34 -92 300 -120 380 -12 36 -37 112 -55 170 -18 58 -50 157 -71 221 -22 63
-39 124 -39 134 0 18 -24 97 -90 295 -16 47 -31 97 -34 113 -3 15 -12 42 -20
59 -9 17 -16 36 -16 43 0 6 -9 41 -20 76 -11 35 -25 82 -31 104 -6 22 -20 58
-30 81 -10 23 -19 46 -19 52 0 17 -70 222 -86 254 -8 15 -23 32 -33 38 -13 6
-253 10 -703 10 -564 -1 -687 -3 -709 -15z m701 -1345 c4 -3 17 -45 29 -95 13
-49 29 -101 36 -115 7 -14 34 -96 59 -183 26 -87 51 -168 55 -180 5 -12 19
-56 31 -97 12 -41 28 -91 35 -110 7 -19 21 -66 30 -105 10 -38 21 -77 25 -85
5 -8 14 -35 20 -60 7 -25 18 -63 25 -85 33 -100 66 -216 80 -276 8 -36 22 -85
30 -110 24 -67 65 -241 59 -250 -5 -9 -1037 -13 -1046 -4 -7 7 20 139 46 230
14 44 32 107 41 140 10 33 28 93 41 134 13 40 24 84 24 97 0 12 4 25 9 28 10
6 54 145 66 206 4 19 13 47 20 61 8 14 26 70 40 125 15 54 31 113 35 129 5 17
13 46 18 65 36 138 85 308 92 325 5 11 21 63 35 115 14 52 31 109 38 125 12
30 12 30 16 5 1 -14 6 -27 11 -30z"/>
<path d="M16260 11989 c0 -11 5 -17 10 -14 6 3 10 13 10 21 0 8 -4 14 -10 14
-5 0 -10 -9 -10 -21z"/>
<path d="M16260 11935 c0 -8 5 -15 10 -15 6 0 10 7 10 15 0 8 -4 15 -10 15 -5
0 -10 -7 -10 -15z"/>
<path d="M5567 11753 c-10 -9 -9 -23 2 -23 5 0 11 7 15 15 5 15 -5 20 -17 8z"/>
<path d="M1553 6590 c-43 -19 -195 -120 -224 -149 -9 -9 -60 -54 -114 -101
-111 -97 -135 -136 -137 -218 -1 -31 -1 -640 0 -1352 l2 -1296 93 -96 c89 -94
177 -170 236 -206 16 -9 58 -34 95 -56 l67 -38 602 -1 c331 0 618 3 637 8 82
17 320 210 419 339 l43 56 3 430 c3 388 2 432 -13 450 -16 19 -31 20 -345 21
-307 0 -330 -1 -343 -18 -15 -21 -15 -9 -15 -343 0 -382 22 -361 -390 -358
-271 3 -288 4 -309 23 -54 48 -51 -8 -53 1154 l-2 1077 25 37 c14 20 39 42 55
48 36 13 443 24 533 14 57 -6 68 -11 103 -47 l39 -41 0 -275 c-1 -245 1 -276
16 -293 16 -18 36 -19 339 -19 321 0 322 0 342 23 21 22 21 28 18 424 l-2 402
-33 50 c-60 94 -338 324 -433 357 -32 11 -146 14 -626 14 -555 0 -588 -1 -628
-20z"/>
<path d="M6820 6599 c-43 -8 -98 -41 -210 -125 -69 -52 -237 -218 -261 -259
-18 -29 -19 -83 -19 -1382 l0 -1352 68 -75 c85 -95 174 -175 288 -257 l89 -64
110 -5 c171 -8 1219 -3 1246 5 30 10 162 110 236 179 30 28 61 54 68 59 8 4
43 41 79 83 l66 75 0 1337 c0 1282 -1 1339 -19 1377 -23 50 -150 178 -255 258
-44 33 -87 68 -96 77 -30 30 -75 56 -116 68 -49 14 -1202 15 -1274 1z m982
-633 c18 -22 36 -47 39 -55 9 -25 5 -2102 -4 -2141 -11 -45 -31 -76 -59 -92
-17 -10 -98 -13 -325 -13 l-301 0 -39 31 c-27 22 -41 44 -50 75 -8 32 -12 326
-12 1090 l-1 1046 35 46 c19 25 40 48 47 51 7 2 154 4 325 3 l313 -2 32 -39z"/>
<path d="M9475 6598 c-36 -8 -123 -45 -135 -58 -3 -3 -27 -22 -55 -42 -27 -20
-105 -92 -172 -161 -91 -93 -124 -134 -132 -163 -18 -63 -15 -1038 3 -1097 16
-53 102 -155 147 -174 15 -6 52 -29 81 -51 29 -21 82 -51 118 -67 36 -15 90
-39 120 -53 108 -48 123 -54 204 -82 44 -16 119 -42 166 -60 47 -18 101 -36
120 -42 19 -6 55 -20 80 -33 25 -12 79 -35 120 -49 41 -15 98 -37 125 -50 28
-13 65 -30 83 -36 17 -7 50 -30 71 -51 l39 -40 1 -250 c1 -137 -1 -265 -5
-283 -3 -19 -21 -51 -40 -71 l-34 -37 -298 4 c-291 4 -299 4 -330 27 -63 45
-67 61 -68 315 0 216 -1 230 -20 242 -30 21 -646 21 -677 1 l-23 -15 2 -328
c1 -220 5 -349 14 -389 12 -58 16 -63 129 -175 124 -121 244 -212 314 -238 36
-13 118 -16 547 -16 278 -1 566 1 640 4 l135 5 106 77 c59 43 153 126 211 186
87 90 106 116 111 148 10 60 8 809 -3 981 -10 171 -16 188 -87 264 -35 37 -77
63 -196 122 -84 42 -197 92 -252 112 -55 20 -109 40 -120 45 -43 19 -216 84
-275 104 -64 21 -208 74 -250 93 -19 8 -44 19 -55 23 -140 57 -197 100 -227
169 -16 39 -19 69 -18 220 1 270 3 286 50 334 49 51 67 54 387 56 l242 2 28
-32 c15 -17 34 -38 41 -45 9 -9 12 -72 12 -241 0 -125 4 -234 9 -242 6 -9 34
-18 68 -21 81 -10 615 -7 631 3 9 6 12 90 12 365 0 324 -2 361 -19 397 -25 55
-184 214 -309 308 -82 62 -114 80 -155 88 -64 12 -1155 10 -1212 -3z"/>
<path d="M12130 6603 c-98 -14 -166 -53 -313 -181 -109 -96 -178 -175 -213
-247 -18 -38 -19 -65 -19 -550 l1 -510 39 -83 c21 -45 41 -82 44 -82 3 0 44
-27 91 -61 131 -93 291 -165 640 -288 80 -28 181 -67 226 -86 44 -19 115 -46
158 -60 110 -37 192 -81 237 -127 l39 -40 1 -127 c1 -69 3 -185 5 -257 3 -154
-4 -196 -41 -230 l-27 -25 -292 3 c-423 4 -404 -11 -405 335 -1 197 -3 234
-17 247 -13 14 -59 16 -343 16 -321 0 -328 0 -347 -21 -18 -20 -19 -40 -18
-345 0 -272 3 -329 17 -361 8 -21 18 -49 21 -63 9 -43 178 -213 279 -282 132
-89 126 -87 239 -97 112 -9 1157 -5 1198 4 14 4 39 17 57 31 17 13 34 24 37
24 27 0 318 272 351 328 15 25 19 881 5 1007 -11 99 -27 161 -55 214 -21 42
-126 134 -171 150 -21 8 -75 31 -119 53 -75 37 -199 86 -311 124 -27 9 -67 24
-89 34 -22 9 -80 32 -130 49 -87 31 -288 109 -350 135 -16 8 -50 22 -75 32
-62 26 -134 85 -153 126 -14 29 -17 74 -17 272 -1 259 0 265 65 326 l26 25
281 3 280 4 44 -43 44 -43 0 -227 c0 -207 2 -229 19 -250 l19 -23 325 -1 c300
0 328 1 344 18 17 16 18 43 15 365 -2 345 -2 347 -27 397 -24 51 -153 187
-228 242 -21 15 -68 51 -106 80 -37 28 -86 56 -109 62 -28 8 -214 11 -594 10
-304 -1 -564 -4 -578 -6z"/>
<path d="M14594 6600 c-412 -6 -389 2 -380 -125 3 -44 6 -825 6 -1736 l1
-1656 340 -2 c296 -2 344 0 365 14 l24 15 0 731 0 730 468 -2 c258 -1 474 1
480 5 9 5 12 81 12 269 0 221 -2 266 -16 285 l-15 22 -465 0 -464 0 0 430 0
430 573 0 c342 0 578 4 587 10 21 13 28 567 8 575 -19 8 -1117 11 -1524 5z"/>
<path d="M16628 6600 c-99 -3 -161 -9 -169 -17 -8 -8 -11 -447 -10 -1744 2
-1623 3 -1733 19 -1745 13 -10 92 -12 347 -11 182 1 336 6 343 11 11 6 12 289
8 1595 -3 872 -5 1652 -6 1732 0 103 -4 150 -13 163 -12 16 -33 18 -188 19
-95 1 -245 0 -331 -3z"/>
<path d="M17862 6600 c-365 -5 -384 -6 -398 -24 -11 -16 -14 -70 -14 -275 0
-141 4 -262 9 -270 15 -24 116 -30 410 -26 222 4 287 2 293 -7 4 -7 8 -657 8
-1445 l0 -1432 26 -20 c26 -20 38 -21 313 -20 285 1 319 4 355 25 19 11 20 43
22 1450 1 792 3 1442 3 1446 1 4 159 8 353 8 315 0 353 1 370 17 17 15 18 34
16 287 l-3 271 -35 12 c-36 13 -884 14 -1728 3z"/>
<path d="M3730 6580 c-20 -20 -20 -28 -22 -1722 0 -937 0 -1711 0 -1721 1 -11
12 -27 25 -38 21 -18 39 -19 335 -17 244 2 312 0 312 -9 0 -7 7 -13 16 -13 11
0 14 5 10 16 -4 9 0 24 9 34 13 14 15 102 17 666 l3 649 85 -1 c147 -2 162 -6
187 -50 12 -21 34 -72 49 -114 15 -41 37 -94 50 -117 13 -23 24 -49 24 -58 0
-8 17 -50 39 -93 21 -42 46 -99 56 -127 19 -57 46 -118 55 -125 4 -3 19 -39
35 -80 15 -41 31 -79 35 -85 4 -5 17 -35 28 -65 11 -30 46 -111 77 -180 31
-69 63 -140 69 -158 7 -18 22 -45 33 -60 l20 -27 346 -3 c360 -4 387 -1 387
38 0 11 -16 53 -34 93 -19 41 -48 107 -65 148 -33 84 -78 183 -158 349 -31 63
-61 130 -68 150 -7 19 -31 77 -54 128 -22 51 -41 99 -41 106 0 8 -6 19 -14 25
-7 6 -21 33 -31 59 -10 26 -42 101 -72 166 -30 66 -52 124 -49 131 2 6 28 28
58 49 55 38 103 72 222 158 91 65 162 141 178 187 9 26 13 199 16 648 l3 613
-23 52 c-12 29 -38 73 -58 96 -37 46 -300 263 -360 297 -34 19 -56 20 -872 23
-829 2 -838 2 -858 -18z m1365 -591 c77 -39 75 -27 74 -476 0 -281 -4 -408
-12 -433 -8 -21 -25 -42 -47 -55 -33 -19 -50 -20 -355 -20 l-320 1 -3 502 -2
502 311 0 c297 0 314 -1 354 -21z"/>
<path d="M6660 6570 c0 -5 5 -10 11 -10 5 0 7 5 4 10 -3 6 -8 10 -11 10 -2 0
-4 -4 -4 -10z"/>
<path d="M11968 6573 c7 -3 16 -2 19 1 4 3 -2 6 -13 5 -11 0 -14 -3 -6 -6z"/>
<path d="M9250 6560 c0 -5 5 -10 10 -10 6 0 10 5 10 10 0 6 -4 10 -10 10 -5 0
-10 -4 -10 -10z"/>
<path d="M5730 3810 c0 -5 5 -10 11 -10 5 0 7 5 4 10 -3 6 -8 10 -11 10 -2 0
-4 -4 -4 -10z"/>
<path d="M11106 3361 c-4 -7 -5 -15 -2 -18 9 -9 19 4 14 18 -4 11 -6 11 -12 0z"/>
<path d="M8472 3330 c-13 -16 -18 -30 -13 -30 12 0 51 40 51 52 0 17 -17 7
-38 -22z"/>
<path d="M9076 3322 c-3 -6 -1 -14 5 -17 15 -10 25 3 12 16 -7 7 -13 7 -17 1z"/>
<path d="M8421 3281 c-9 -6 -10 -11 -2 -15 13 -8 31 1 31 15 0 11 -11 11 -29
0z"/>
<path d="M10865 3141 c-3 -5 -1 -12 5 -16 5 -3 10 1 10 9 0 18 -6 21 -15 7z"/>
<path d="M11945 2450 c3 -5 8 -10 11 -10 2 0 4 5 4 10 0 6 -5 10 -11 10 -5 0
-7 -4 -4 -10z"/>
<path d="M12460 2450 c0 -5 5 -10 10 -10 6 0 10 5 10 10 0 6 -4 10 -10 10 -5
0 -10 -4 -10 -10z"/>
<path d="M12507 2453 c-13 -12 -7 -23 13 -23 11 0 20 7 20 15 0 15 -21 21 -33
8z"/>
<path d="M13106 2451 c-4 -7 -5 -15 -2 -18 9 -9 19 4 14 18 -4 11 -6 11 -12 0z"/>
<path d="M8125 2440 c-3 -5 -1 -10 4 -10 6 0 11 5 11 10 0 6 -2 10 -4 10 -3 0
-8 -4 -11 -10z"/>
<path d="M8700 2440 c0 -5 9 -10 20 -10 11 0 20 5 20 10 0 6 -9 10 -20 10 -11
0 -20 -4 -20 -10z"/>
<path d="M9845 2440 c-3 -5 1 -10 9 -10 9 0 16 5 16 10 0 6 -4 10 -9 10 -6 0
-13 -4 -16 -10z"/>
<path d="M11975 2440 c-3 -5 3 -10 15 -10 12 0 18 5 15 10 -3 6 -10 10 -15 10
-5 0 -12 -4 -15 -10z"/>
<path d="M8075 2430 c3 -5 10 -10 16 -10 5 0 9 5 9 10 0 6 -7 10 -16 10 -8 0
-12 -4 -9 -10z"/>
<path d="M8188 2429 c-21 -5 -56 -20 -77 -34 -53 -33 -130 -114 -139 -145 -4
-14 -7 -131 -7 -260 0 -192 3 -240 15 -263 40 -71 262 -195 462 -257 15 -5 49
-20 76 -35 l49 -27 7 -90 c16 -237 11 -248 -115 -248 -68 0 -164 14 -178 27
-3 2 -7 57 -11 124 -4 89 -10 123 -20 130 -24 16 -280 6 -291 -12 -5 -8 -8
-83 -7 -169 3 -122 7 -162 20 -186 28 -51 109 -125 168 -152 53 -25 61 -26
275 -26 183 -1 230 2 277 17 62 19 133 73 177 135 26 37 26 37 29 272 l3 236
-33 64 c-23 44 -48 76 -80 100 -43 32 -206 108 -268 125 -14 4 -71 27 -127 52
-96 43 -103 48 -113 82 -15 56 -13 207 5 240 19 38 30 41 149 41 134 0 134 0
138 -145 l3 -110 159 -3 158 -3 -4 158 c-5 174 -13 203 -68 267 -19 21 -64 53
-101 72 l-69 34 -212 -1 c-117 -1 -230 -5 -250 -10z"/>
<path d="M12554 2422 c-117 -49 -176 -123 -194 -242 -7 -51 -10 -248 -8 -615
3 -534 3 -540 25 -586 41 -84 90 -129 173 -158 48 -16 487 -16 544 1 44 13
121 83 169 155 l28 41 -1 182 c0 101 -3 186 -6 191 -6 10 -263 12 -288 3 -14
-5 -16 -27 -16 -143 0 -75 -5 -143 -10 -151 -7 -12 -37 -16 -138 -18 -109 -3
-132 -1 -146 13 -14 15 -16 66 -16 524 0 609 -16 551 148 551 66 0 119 -5 135
-12 l26 -13 -2 -117 c-2 -70 1 -122 7 -128 12 -12 275 -13 295 -1 11 7 13 39
12 155 -1 80 -6 158 -10 174 -22 76 -87 143 -179 185 -43 20 -65 22 -277 24
-200 3 -235 1 -271 -15z"/>
<path d="M5862 2417 c-14 -16 -11 -48 12 -147 8 -36 20 -96 26 -135 6 -38 22
-133 36 -210 14 -77 34 -189 44 -250 10 -60 27 -159 39 -220 11 -60 29 -164
40 -230 11 -66 27 -154 35 -195 8 -41 17 -96 21 -121 11 -84 22 -89 199 -89
115 0 156 3 165 13 12 15 24 73 41 192 6 44 24 148 40 230 61 316 80 427 81
463 2 43 2 42 44 -226 15 -90 35 -195 45 -235 10 -40 31 -144 45 -232 15 -88
31 -167 36 -176 12 -23 53 -29 209 -29 98 0 140 4 148 13 5 6 26 102 46 212
38 209 40 222 81 480 35 224 55 342 66 400 5 28 16 95 25 150 8 55 24 140 35
190 24 113 24 141 0 155 -11 5 -82 10 -160 10 -124 0 -140 -2 -145 -17 -7 -22
-30 -178 -56 -378 -11 -82 -25 -175 -30 -205 -15 -76 -49 -357 -50 -403 0 -23
-4 -36 -10 -32 -5 3 -10 23 -10 43 0 36 -47 314 -75 442 -7 36 -19 99 -25 140
-6 41 -15 95 -20 120 -5 25 -14 90 -21 145 -17 148 -13 145 -169 145 -142 0
-160 -7 -160 -59 0 -15 -13 -92 -30 -172 -16 -79 -36 -191 -44 -249 -8 -58
-22 -134 -30 -170 -9 -36 -23 -130 -32 -210 -20 -182 -29 -209 -38 -115 -7 76
-28 220 -51 355 -8 47 -22 132 -30 190 -8 58 -22 148 -30 200 -8 52 -15 118
-15 145 0 28 -4 56 -9 63 -6 10 -48 15 -157 19 -125 5 -152 3 -162 -10z"/>
<path d="M9091 2416 c-17 -21 -16 -1577 1 -1588 7 -4 72 -8 144 -8 109 0 134
3 145 16 11 13 13 78 14 300 l0 284 200 4 c216 4 254 12 321 62 20 15 49 54
66 87 28 56 30 70 35 196 8 203 -10 449 -36 500 -29 56 -82 107 -143 136 l-52
25 -342 0 c-278 0 -344 -3 -353 -14z m556 -262 c17 -2 34 -12 37 -20 3 -9 6
-96 6 -195 0 -134 -4 -188 -14 -214 l-15 -35 -83 -1 c-84 -2 -111 -2 -160 0
l-28 1 0 233 c0 129 3 237 6 240 7 7 194 0 251 -9z"/>
<path d="M10356 2414 c-9 -8 -16 -17 -16 -18 0 -2 -22 -93 -49 -202 -44 -175
-94 -392 -150 -649 -10 -44 -32 -145 -50 -225 -17 -80 -48 -212 -68 -295 -39
-160 -41 -184 -21 -196 7 -5 77 -9 155 -9 172 0 161 -10 193 170 35 191 12
172 196 165 86 -3 161 -8 165 -11 5 -3 8 -15 8 -27 -1 -12 6 -62 15 -111 9
-49 16 -99 16 -111 0 -14 13 -34 31 -49 30 -25 34 -26 175 -26 162 0 165 1
146 68 -5 20 -24 96 -40 167 -17 72 -42 177 -56 235 -46 195 -88 373 -118 505
-11 50 -33 149 -49 220 -16 72 -41 180 -54 242 -24 111 -38 151 -59 165 -6 4
-88 8 -183 8 -143 0 -174 -3 -187 -16z m214 -559 c11 -44 24 -109 29 -145 21
-131 42 -255 47 -272 5 -16 -4 -18 -95 -18 l-100 0 6 53 c3 28 12 88 19 132 8
44 23 141 35 215 24 152 31 177 36 140 2 -14 12 -61 23 -105z"/>
<path d="M11229 2409 c-9 -17 -12 -216 -13 -788 -1 -699 0 -767 16 -785 15
-19 27 -21 148 -21 185 0 171 -29 170 344 l-1 296 30 -1 c93 -4 82 7 130 -121
24 -65 66 -183 92 -263 27 -80 53 -153 59 -162 5 -10 10 -24 10 -31 0 -7 10
-23 23 -35 21 -20 34 -22 149 -22 130 0 178 9 178 33 0 8 -23 74 -51 148 -82
218 -150 402 -160 434 -8 26 -5 34 30 70 54 57 109 141 116 178 4 18 5 145 3
284 -2 185 -6 255 -15 265 -7 6 -13 20 -13 30 0 26 -85 115 -135 141 -38 21
-54 22 -397 25 l-357 3 -12 -22z m598 -284 l26 -29 -7 -169 c-7 -177 -15 -209
-57 -220 -10 -3 -69 -4 -129 -4 l-111 2 0 220 c0 121 0 224 1 228 0 5 57 7
126 5 125 -3 126 -3 151 -33z"/>
<path d="M13473 2418 c-4 -7 -9 -342 -9 -745 -1 -402 -5 -736 -8 -742 -9 -14
10 -93 26 -102 25 -16 76 -21 183 -17 91 2 109 6 120 22 12 16 14 149 15 788
0 753 -1 769 -20 788 -18 18 -34 20 -159 20 -101 0 -142 -3 -148 -12z"/>
<path d="M14006 2414 c-14 -14 -16 -97 -16 -769 0 -414 -3 -760 -6 -768 -3 -9
4 -25 15 -36 21 -21 29 -21 425 -21 333 0 406 2 415 14 8 9 11 54 9 132 l-3
119 -249 3 c-164 1 -254 6 -263 13 -10 9 -13 56 -13 205 l0 194 108 2 c294 4
294 4 307 22 16 21 11 222 -6 242 -8 10 -58 14 -207 16 l-196 3 1 85 c1 47 2
131 2 187 l1 102 250 3 c199 2 252 6 259 17 15 24 11 204 -5 229 l-14 22 -400
0 c-349 0 -401 -2 -414 -16z"/>
<path d="M9900 2400 c0 -5 5 -10 11 -10 5 0 7 5 4 10 -3 6 -8 10 -11 10 -2 0
-4 -4 -4 -10z"/>
<path d="M12927 1933 c-13 -12 -7 -33 8 -33 8 0 15 9 15 20 0 20 -11 26 -23
13z"/>
<path d="M15493 1840 c-39 -4 -60 -13 -81 -33 -63 -61 -89 -163 -59 -234 22
-52 76 -106 111 -109 73 -7 4164 -5 4191 2 77 19 127 90 127 182 1 88 -57 174
-127 187 -38 7 -4093 12 -4162 5z"/>
<path d="M1060 1829 c-64 -26 -113 -100 -113 -173 0 -60 17 -97 68 -147 32
-32 43 -37 98 -42 34 -3 987 -5 2117 -4 1726 2 2058 4 2076 16 41 27 68 80 72
143 6 78 -11 127 -60 175 l-39 38 -2097 2 c-1380 1 -2106 -2 -2122 -8z"/>
<path d="M6640 1456 c0 -9 5 -16 10 -16 6 0 10 4 10 9 0 6 -4 13 -10 16 -5 3
-10 -1 -10 -9z"/>
<path d="M6640 1344 c0 -8 5 -12 10 -9 6 3 10 10 10 16 0 5 -4 9 -10 9 -5 0
-10 -7 -10 -16z"/>
<path d="M6631 1244 c0 -11 3 -14 6 -6 3 7 2 16 -1 19 -3 4 -6 -2 -5 -13z"/>
<path d="M6620 1196 c0 -8 5 -18 10 -21 6 -3 10 3 10 14 0 12 -4 21 -10 21 -5
0 -10 -6 -10 -14z"/>
<path d="M11700 1110 c0 -5 5 -10 10 -10 6 0 10 5 10 10 0 6 -4 10 -10 10 -5
0 -10 -4 -10 -10z"/>
<path d="M13280 970 c0 -5 5 -10 10 -10 6 0 10 5 10 10 0 6 -4 10 -10 10 -5 0
-10 -4 -10 -10z"/>
<path d="M11130 864 c0 -17 22 -14 28 4 2 7 -3 12 -12 12 -9 0 -16 -7 -16 -16z"/>
</g>
</svg>
